# xmcd CD database file
#
# Track frame offsets:
#	150
#	13227
#	29374
#	44768
#	60163
#	78632
#	84127
#	104099
#	122571
#	140213
#	156360
#	170257
#
# Disc length: 2554 seconds
#
# Revision: 9
# Processed by: cddbd v1.5.1PL0 Copyright (c) Steve Scherf et al.
# Submitted via: CDex 1.51
#
DISCID=9f09f80c
DTITLE=東京事変 - 教育
DYEAR=2004
DGENRE=Rock
TTITLE0=林檎の唄
TTITLE1=群青日和
TTITLE2=入水願い
TTITLE3=遭難
TTITLE4=クロール
TTITLE5=現実に於て
TTITLE6=現実を嗤う
TTITLE7=サービス
TTITLE8=駅前
TTITLE9=御祭騒ぎ
TTITLE10=母国情緒
TTITLE11=夢のあと
EXTD=YEAR: 2004
EXTT0=
EXTT1=
EXTT2=
EXTT3=
EXTT4=
EXTT5=
EXTT6=
EXTT7=
EXTT8=
EXTT9=
EXTT10=
EXTT11=
PLAYORDER=
